<mxfile host="app.diagrams.net" agent="Mozilla/5.0 (Windows NT 10.0; Win64; x64) AppleWebKit/537.36 (KHTML, like Gecko) Chrome/136.0.0.0 Safari/537.36" version="27.0.6">
  <diagram name="第 1 页" id="mss8xx8UmYQktY06x9cP">
    <mxGraphModel dx="1389" dy="831" grid="1" gridSize="10" guides="1" tooltips="1" connect="1" arrows="1" fold="1" page="1" pageScale="1" pageWidth="827" pageHeight="1169" math="0" shadow="0">
      <root>
        <mxCell id="0" />
        <mxCell id="1" parent="0" />
        <mxCell id="QWHWrBPyDcIuH5LoBPDl-1" value="" style="rounded=0;whiteSpace=wrap;html=1;" vertex="1" parent="1">
          <mxGeometry x="110" y="160" width="650" height="330" as="geometry" />
        </mxCell>
        <mxCell id="QWHWrBPyDcIuH5LoBPDl-4" value="" style="rounded=1;whiteSpace=wrap;html=1;" vertex="1" parent="1">
          <mxGeometry x="140" y="180" width="590" height="140" as="geometry" />
        </mxCell>
        <mxCell id="QWHWrBPyDcIuH5LoBPDl-22" value="" style="rounded=1;whiteSpace=wrap;html=1;fillColor=none;strokeColor=#B3B3B3;" vertex="1" parent="1">
          <mxGeometry x="150" y="190" width="570" height="40" as="geometry" />
        </mxCell>
        <mxCell id="QWHWrBPyDcIuH5LoBPDl-2" value="題材" style="text;html=1;align=center;verticalAlign=middle;whiteSpace=wrap;rounded=0;" vertex="1" parent="1">
          <mxGeometry x="160" y="195" width="60" height="30" as="geometry" />
        </mxCell>
        <mxCell id="QWHWrBPyDcIuH5LoBPDl-5" value="" style="rounded=1;whiteSpace=wrap;html=1;" vertex="1" parent="1">
          <mxGeometry x="140" y="330" width="590" height="140" as="geometry" />
        </mxCell>
        <mxCell id="QWHWrBPyDcIuH5LoBPDl-3" value="標籤" style="text;html=1;align=center;verticalAlign=middle;whiteSpace=wrap;rounded=0;" vertex="1" parent="1">
          <mxGeometry x="150" y="340" width="60" height="30" as="geometry" />
        </mxCell>
        <mxCell id="QWHWrBPyDcIuH5LoBPDl-7" value="小說" style="text;html=1;align=center;verticalAlign=middle;whiteSpace=wrap;rounded=1;strokeColor=#d79b00;fillColor=#ffe6cc;" vertex="1" parent="1">
          <mxGeometry x="150" y="250" width="60" height="30" as="geometry" />
        </mxCell>
        <mxCell id="QWHWrBPyDcIuH5LoBPDl-8" value="推理" style="text;html=1;align=center;verticalAlign=middle;whiteSpace=wrap;rounded=1;strokeColor=#6c8ebf;fillColor=#dae8fc;" vertex="1" parent="1">
          <mxGeometry x="240" y="250" width="60" height="30" as="geometry" />
        </mxCell>
        <mxCell id="QWHWrBPyDcIuH5LoBPDl-9" value="科幻" style="text;html=1;align=center;verticalAlign=middle;whiteSpace=wrap;rounded=1;strokeColor=#6c8ebf;fillColor=#dae8fc;" vertex="1" parent="1">
          <mxGeometry x="330" y="250" width="60" height="30" as="geometry" />
        </mxCell>
        <mxCell id="QWHWrBPyDcIuH5LoBPDl-10" value="文學" style="text;html=1;align=center;verticalAlign=middle;whiteSpace=wrap;rounded=1;strokeColor=#6c8ebf;fillColor=#dae8fc;" vertex="1" parent="1">
          <mxGeometry x="420" y="250" width="60" height="30" as="geometry" />
        </mxCell>
        <mxCell id="QWHWrBPyDcIuH5LoBPDl-12" value="溫馨" style="text;html=1;align=center;verticalAlign=middle;whiteSpace=wrap;rounded=1;strokeColor=#d79b00;fillColor=#ffe6cc;" vertex="1" parent="1">
          <mxGeometry x="510" y="250" width="60" height="30" as="geometry" />
        </mxCell>
        <mxCell id="QWHWrBPyDcIuH5LoBPDl-13" value="暢銷書" style="text;html=1;align=center;verticalAlign=middle;whiteSpace=wrap;rounded=1;strokeColor=#d79b00;fillColor=#ffe6cc;" vertex="1" parent="1">
          <mxGeometry x="150" y="400" width="60" height="30" as="geometry" />
        </mxCell>
        <mxCell id="QWHWrBPyDcIuH5LoBPDl-14" value="獲獎作品" style="text;html=1;align=center;verticalAlign=middle;whiteSpace=wrap;rounded=1;strokeColor=#6c8ebf;fillColor=#dae8fc;" vertex="1" parent="1">
          <mxGeometry x="240" y="400" width="60" height="30" as="geometry" />
        </mxCell>
        <mxCell id="QWHWrBPyDcIuH5LoBPDl-16" value="經典" style="text;html=1;align=center;verticalAlign=middle;whiteSpace=wrap;rounded=1;strokeColor=#6c8ebf;fillColor=#dae8fc;" vertex="1" parent="1">
          <mxGeometry x="330" y="400" width="60" height="30" as="geometry" />
        </mxCell>
        <mxCell id="QWHWrBPyDcIuH5LoBPDl-17" value="外國文學" style="text;html=1;align=center;verticalAlign=middle;whiteSpace=wrap;rounded=1;strokeColor=#d79b00;fillColor=#ffe6cc;" vertex="1" parent="1">
          <mxGeometry x="420" y="400" width="60" height="30" as="geometry" />
        </mxCell>
        <mxCell id="QWHWrBPyDcIuH5LoBPDl-19" value="+新增題材" style="text;html=1;align=center;verticalAlign=middle;whiteSpace=wrap;rounded=1;strokeColor=default;" vertex="1" parent="1">
          <mxGeometry x="600" y="250" width="80" height="30" as="geometry" />
        </mxCell>
        <mxCell id="QWHWrBPyDcIuH5LoBPDl-20" value="+新增標籤" style="text;html=1;align=center;verticalAlign=middle;whiteSpace=wrap;rounded=1;strokeColor=default;" vertex="1" parent="1">
          <mxGeometry x="500" y="400" width="80" height="30" as="geometry" />
        </mxCell>
        <mxCell id="QWHWrBPyDcIuH5LoBPDl-25" value="" style="rounded=1;whiteSpace=wrap;html=1;fillColor=none;strokeColor=#B3B3B3;" vertex="1" parent="1">
          <mxGeometry x="150" y="340" width="570" height="40" as="geometry" />
        </mxCell>
        <mxCell id="QWHWrBPyDcIuH5LoBPDl-26" value="小說" style="text;html=1;align=center;verticalAlign=middle;whiteSpace=wrap;rounded=1;strokeColor=#d79b00;fillColor=#ffe6cc;" vertex="1" parent="1">
          <mxGeometry x="240" y="195" width="60" height="30" as="geometry" />
        </mxCell>
        <mxCell id="QWHWrBPyDcIuH5LoBPDl-27" value="溫馨" style="text;html=1;align=center;verticalAlign=middle;whiteSpace=wrap;rounded=1;strokeColor=#d79b00;fillColor=#ffe6cc;" vertex="1" parent="1">
          <mxGeometry x="330" y="195" width="60" height="30" as="geometry" />
        </mxCell>
        <mxCell id="QWHWrBPyDcIuH5LoBPDl-28" value="暢銷書" style="text;html=1;align=center;verticalAlign=middle;whiteSpace=wrap;rounded=1;strokeColor=#d79b00;fillColor=#ffe6cc;" vertex="1" parent="1">
          <mxGeometry x="240" y="345" width="60" height="30" as="geometry" />
        </mxCell>
        <mxCell id="QWHWrBPyDcIuH5LoBPDl-29" value="外國文學" style="text;html=1;align=center;verticalAlign=middle;whiteSpace=wrap;rounded=1;strokeColor=#d79b00;fillColor=#ffe6cc;" vertex="1" parent="1">
          <mxGeometry x="330" y="345" width="70" height="30" as="geometry" />
        </mxCell>
        <mxCell id="QWHWrBPyDcIuH5LoBPDl-32" value="" style="group" vertex="1" connectable="0" parent="1">
          <mxGeometry x="290" y="190" width="20" height="20" as="geometry" />
        </mxCell>
        <mxCell id="QWHWrBPyDcIuH5LoBPDl-30" value="" style="ellipse;whiteSpace=wrap;html=1;aspect=fixed;fillColor=#FF3333;strokeColor=default;" vertex="1" parent="QWHWrBPyDcIuH5LoBPDl-32">
          <mxGeometry width="20" height="20" as="geometry" />
        </mxCell>
        <mxCell id="QWHWrBPyDcIuH5LoBPDl-31" value="" style="verticalLabelPosition=bottom;verticalAlign=top;html=1;shape=mxgraph.basic.x" vertex="1" parent="QWHWrBPyDcIuH5LoBPDl-32">
          <mxGeometry x="5" y="5" width="10" height="10" as="geometry" />
        </mxCell>
        <mxCell id="QWHWrBPyDcIuH5LoBPDl-35" value="" style="group" vertex="1" connectable="0" parent="1">
          <mxGeometry x="380" y="190" width="20" height="20" as="geometry" />
        </mxCell>
        <mxCell id="QWHWrBPyDcIuH5LoBPDl-36" value="" style="ellipse;whiteSpace=wrap;html=1;aspect=fixed;fillColor=#FF3333;strokeColor=default;" vertex="1" parent="QWHWrBPyDcIuH5LoBPDl-35">
          <mxGeometry width="20" height="20" as="geometry" />
        </mxCell>
        <mxCell id="QWHWrBPyDcIuH5LoBPDl-37" value="" style="verticalLabelPosition=bottom;verticalAlign=top;html=1;shape=mxgraph.basic.x" vertex="1" parent="QWHWrBPyDcIuH5LoBPDl-35">
          <mxGeometry x="5" y="5" width="10" height="10" as="geometry" />
        </mxCell>
        <mxCell id="QWHWrBPyDcIuH5LoBPDl-38" value="" style="group" vertex="1" connectable="0" parent="1">
          <mxGeometry x="290" y="340" width="20" height="20" as="geometry" />
        </mxCell>
        <mxCell id="QWHWrBPyDcIuH5LoBPDl-39" value="" style="ellipse;whiteSpace=wrap;html=1;aspect=fixed;fillColor=#FF3333;strokeColor=default;" vertex="1" parent="QWHWrBPyDcIuH5LoBPDl-38">
          <mxGeometry width="20" height="20" as="geometry" />
        </mxCell>
        <mxCell id="QWHWrBPyDcIuH5LoBPDl-40" value="" style="verticalLabelPosition=bottom;verticalAlign=top;html=1;shape=mxgraph.basic.x" vertex="1" parent="QWHWrBPyDcIuH5LoBPDl-38">
          <mxGeometry x="5" y="5" width="10" height="10" as="geometry" />
        </mxCell>
        <mxCell id="QWHWrBPyDcIuH5LoBPDl-41" value="" style="group" vertex="1" connectable="0" parent="1">
          <mxGeometry x="390" y="340" width="20" height="20" as="geometry" />
        </mxCell>
        <mxCell id="QWHWrBPyDcIuH5LoBPDl-42" value="" style="ellipse;whiteSpace=wrap;html=1;aspect=fixed;fillColor=#FF3333;strokeColor=default;" vertex="1" parent="QWHWrBPyDcIuH5LoBPDl-41">
          <mxGeometry width="20" height="20" as="geometry" />
        </mxCell>
        <mxCell id="QWHWrBPyDcIuH5LoBPDl-43" value="" style="verticalLabelPosition=bottom;verticalAlign=top;html=1;shape=mxgraph.basic.x" vertex="1" parent="QWHWrBPyDcIuH5LoBPDl-41">
          <mxGeometry x="5" y="5" width="10" height="10" as="geometry" />
        </mxCell>
      </root>
    </mxGraphModel>
  </diagram>
</mxfile>
